<svg width="399" height="194" viewBox="0 0 399 194" fill="none" xmlns="http://www.w3.org/2000/svg">
<path d="M84.7435 90.2322C84.7435 91.4609 84.5259 92.7792 84.0908 94.1871C83.6812 95.5949 82.9901 96.9004 82.0174 98.1035C81.0702 99.3066 79.8287 100.318 78.2929 101.137C76.757 101.93 74.8756 102.327 72.6486 102.327H34.7511C34.0343 102.327 33.3688 102.199 32.7544 101.943C32.1401 101.687 31.6025 101.342 31.1418 100.906C30.7066 100.446 30.361 99.9082 30.1051 99.2938C29.8491 98.6795 29.7211 98.0139 29.7211 97.2972V52.2963C29.7211 51.6052 29.8491 50.9524 30.1051 50.3381C30.361 49.7237 30.7066 49.1862 31.1418 48.7254C31.6025 48.2647 32.1401 47.9063 32.7544 47.6503C33.3688 47.3943 34.0343 47.2663 34.7511 47.2663H68.1562C69.3849 47.2663 70.7031 47.4839 72.111 47.9191C73.5189 48.3542 74.8244 49.0582 76.0275 50.0309C77.2562 50.978 78.2673 52.2195 79.0608 53.7554C79.8799 55.2912 80.2895 57.1727 80.2895 59.3997V61.2811C80.2895 63.0474 79.9951 64.9544 79.4064 67.0022C78.8176 69.0244 77.8705 70.9443 76.565 72.7617C77.6913 73.4529 78.7408 74.2848 79.7136 75.2575C80.7119 76.2302 81.5822 77.3565 82.3245 78.6364C83.0669 79.9163 83.6556 81.3626 84.0908 82.9752C84.5259 84.5879 84.7435 86.3669 84.7435 88.3124V90.2322ZM74.7604 88.3124C74.7604 87.0069 74.5556 85.8422 74.146 84.8183C73.7365 83.7688 73.1605 82.8728 72.4182 82.1305C71.6759 81.3882 70.7799 80.825 69.7304 80.4411C68.6809 80.0315 67.5034 79.8267 66.1979 79.8267H43.6975V69.7668H61.7055C63.011 69.7668 64.1885 69.5748 65.238 69.1908C66.2875 68.7813 67.1834 68.2053 67.9258 67.463C68.6681 66.7206 69.2313 65.8375 69.6152 64.8136C70.0248 63.7641 70.2296 62.5866 70.2296 61.2811V59.3997C70.2296 57.9662 69.5384 57.2495 68.1562 57.2495H39.7042V92.344H72.6486C72.8278 92.344 73.0453 92.3312 73.3013 92.3056C73.5573 92.28 73.7877 92.2032 73.9925 92.0752C74.1972 91.9473 74.3764 91.7297 74.53 91.4225C74.6836 91.1153 74.7604 90.693 74.7604 90.1554V88.3124ZM110.584 102.327H106.13C104.697 102.327 103.161 102.084 101.523 101.598C99.9102 101.111 98.3999 100.318 96.9921 99.217C95.5842 98.0907 94.4195 96.6444 93.498 94.8782C92.5764 93.0864 92.1157 90.8977 92.1157 88.3124V43.2731H102.099V88.3124C102.099 89.5411 102.483 90.5266 103.251 91.2689C104.019 91.9856 104.979 92.344 106.13 92.344H110.584V102.327ZM162.151 88.3124C162.151 90.0274 161.934 91.5761 161.498 92.9584C161.063 94.315 160.487 95.5181 159.771 96.5676C159.054 97.5916 158.222 98.4747 157.275 99.217C156.328 99.9338 155.329 100.523 154.28 100.983C153.256 101.444 152.206 101.79 151.131 102.02C150.082 102.225 149.084 102.327 148.136 102.327H130.128C128.746 102.327 127.236 102.084 125.598 101.598C123.959 101.111 122.436 100.318 121.028 99.217C119.646 98.0907 118.481 96.6444 117.534 94.8782C116.613 93.0864 116.152 90.8977 116.152 88.3124V74.7967C116.152 72.237 116.613 70.074 117.534 68.3077C118.481 66.5159 119.646 65.0696 121.028 63.9689C122.436 62.8426 123.959 62.0363 125.598 61.5499C127.236 61.0635 128.746 60.8204 130.128 60.8204H148.136C150.696 60.8204 152.872 61.2811 154.664 62.2026C156.456 63.1242 157.902 64.2889 159.003 65.6967C160.103 67.079 160.897 68.5893 161.383 70.2275C161.895 71.8658 162.151 73.3889 162.151 74.7967V88.3124ZM152.168 74.8735C152.168 73.4913 151.822 72.4673 151.131 71.8018C150.44 71.1363 149.442 70.8035 148.136 70.8035H130.205C128.874 70.8035 127.863 71.1491 127.172 71.8402C126.481 72.5057 126.135 73.4913 126.135 74.7967V88.3124C126.135 89.6179 126.481 90.6162 127.172 91.3073C127.863 91.9984 128.874 92.344 130.205 92.344H148.136C149.493 92.344 150.504 91.9984 151.17 91.3073C151.835 90.6162 152.168 89.6179 152.168 88.3124V74.8735ZM210.877 102.327H183.807C182.425 102.327 180.914 102.084 179.276 101.598C177.638 101.111 176.115 100.318 174.707 99.217C173.325 98.0907 172.16 96.6444 171.213 94.8782C170.291 93.0864 169.831 90.8977 169.831 88.3124V74.7967C169.831 73.8496 169.933 72.8513 170.138 71.8018C170.368 70.7523 170.714 69.7156 171.174 68.6917C171.635 67.6422 172.224 66.6439 172.941 65.6967C173.683 64.7496 174.566 63.9177 175.59 63.201C176.64 62.4842 177.843 61.9083 179.199 61.4731C180.556 61.0379 182.092 60.8204 183.807 60.8204H210.877V70.8035H183.807C182.501 70.8035 181.503 71.1363 180.812 71.8018C180.146 72.4673 179.814 73.4913 179.814 74.8735V88.3124C179.814 89.6179 180.159 90.6162 180.85 91.3073C181.541 91.9984 182.553 92.344 183.884 92.344H210.877V102.327ZM267.896 102.327H253.497L233.377 82.8984C232.251 81.8745 231.726 80.5946 231.803 79.0588C231.854 78.342 232.033 77.6765 232.34 77.0621C232.673 76.4222 233.121 75.8846 233.684 75.4495L251.923 60.7436H267.896L244.397 79.6731L267.896 102.327ZM229.269 102.327H219.285V43.2731H229.269V102.327Z" fill="#166DFF"/>
<path d="M349.449 26H369.525C371.307 26 372.199 28.1543 370.939 29.4142L325.44 74.9129C324.659 75.694 324.659 76.9603 325.44 77.7414L370.939 123.24C372.199 124.5 371.307 126.654 369.525 126.654H349.449C348.388 126.654 347.37 126.233 346.62 125.483L300.293 79.1556C298.731 77.5935 298.731 75.0608 300.293 73.4987L346.62 27.1716C347.37 26.4214 348.388 26 349.449 26Z" fill="#166DFF"/>
<path d="M310.38 60.5838L300.733 50.9372C299.983 50.1871 298.965 49.7656 297.904 49.7656H277.828C276.046 49.7656 275.154 51.9199 276.414 53.1798L297.489 74.2549C297.78 73.4631 298.243 72.7202 298.879 72.0845L310.38 60.5838Z" fill="black"/>
<path d="M297.489 78.3994C297.78 79.1913 298.243 79.9341 298.879 80.5698L310.38 92.0705L300.733 101.717C299.983 102.467 298.965 102.889 297.904 102.889H277.828C276.046 102.889 275.154 100.734 276.414 99.4745L297.489 78.3994Z" fill="black"/>
<path d="M57.3887 140H33.6455C33.2718 140 32.9248 139.933 32.6045 139.8C32.2842 139.666 32.0039 139.486 31.7637 139.259C31.5368 139.019 31.3566 138.739 31.2231 138.418C31.0897 138.098 31.0229 137.751 31.0229 137.377V111.292H36.228V134.795H57.3887V140ZM89.3799 140H84.1748V132.953H65.877V140H60.6719V125.646C60.6719 123.551 61.0322 121.622 61.7529 119.86C62.4736 118.099 63.4746 116.584 64.7559 115.316C66.0371 114.048 67.5519 113.06 69.3003 112.353C71.0487 111.646 72.9572 111.292 75.0259 111.292H86.7573C87.1177 111.292 87.458 111.359 87.7783 111.492C88.0986 111.626 88.3789 111.812 88.6191 112.053C88.8594 112.293 89.0462 112.573 89.1797 112.894C89.3132 113.214 89.3799 113.554 89.3799 113.915V140ZM65.877 127.748H84.1748V116.497H75.0259C74.8657 116.497 74.5254 116.524 74.0049 116.577C73.4977 116.617 72.9038 116.731 72.2231 116.917C71.5558 117.104 70.8485 117.391 70.1011 117.778C69.3537 118.165 68.6663 118.699 68.0391 119.38C67.4118 120.061 66.8913 120.915 66.4775 121.942C66.0771 122.957 65.877 124.191 65.877 125.646V127.748ZM123.573 137.377C123.573 137.751 123.507 138.098 123.373 138.418C123.24 138.739 123.053 139.019 122.812 139.259C122.572 139.486 122.292 139.666 121.972 139.8C121.651 139.933 121.311 140 120.951 140H109.219C108.111 140 106.99 139.88 105.856 139.64C104.722 139.399 103.62 139.032 102.553 138.539C101.498 138.031 100.504 137.391 99.5698 136.617C98.6356 135.843 97.8148 134.928 97.1074 133.874C96.4134 132.806 95.8662 131.592 95.4658 130.23C95.0654 128.856 94.8652 127.328 94.8652 125.646V111.292H100.07V125.646C100.07 127.114 100.271 128.355 100.671 129.37C101.085 130.384 101.605 131.231 102.232 131.912C102.86 132.593 103.547 133.127 104.294 133.514C105.042 133.901 105.749 134.188 106.417 134.375C107.097 134.561 107.691 134.681 108.198 134.735C108.719 134.775 109.059 134.795 109.219 134.795H118.368V111.292H123.573V137.377ZM158.327 137.778C158.327 138.152 158.254 138.499 158.107 138.819C157.973 139.139 157.787 139.419 157.546 139.66C157.319 139.887 157.046 140.067 156.726 140.2C156.405 140.334 156.065 140.4 155.705 140.4C155.384 140.4 155.057 140.34 154.724 140.22C154.403 140.1 154.116 139.907 153.863 139.64L134.844 119.78V140H129.639V113.514C129.639 112.98 129.786 112.5 130.08 112.073C130.387 111.632 130.774 111.305 131.241 111.092C131.735 110.892 132.242 110.845 132.762 110.952C133.283 111.045 133.73 111.285 134.104 111.672L153.122 131.512V111.292H158.327V137.778ZM190.098 140H171.32C170.839 140 170.319 139.947 169.758 139.84C169.211 139.72 168.664 139.54 168.117 139.299C167.583 139.059 167.069 138.752 166.575 138.378C166.081 137.991 165.641 137.531 165.254 136.997C164.88 136.45 164.58 135.823 164.353 135.115C164.126 134.395 164.013 133.587 164.013 132.693V118.599C164.013 118.119 164.066 117.605 164.173 117.058C164.293 116.497 164.473 115.95 164.713 115.416C164.954 114.869 165.267 114.348 165.654 113.854C166.041 113.361 166.502 112.927 167.036 112.553C167.583 112.166 168.21 111.859 168.917 111.632C169.625 111.405 170.426 111.292 171.32 111.292H190.098V116.497H171.32C170.639 116.497 170.119 116.677 169.758 117.038C169.398 117.398 169.218 117.932 169.218 118.639V132.693C169.218 133.36 169.398 133.881 169.758 134.254C170.132 134.615 170.653 134.795 171.32 134.795H190.098V140ZM200.268 123.023H218.546V111.292H223.751V140H218.546V128.269H200.268V140H195.063V111.292H200.268V123.023ZM258.465 123.304C258.465 124.492 258.318 125.553 258.024 126.487C257.731 127.421 257.33 128.249 256.823 128.969C256.329 129.677 255.756 130.284 255.102 130.791C254.448 131.298 253.76 131.712 253.04 132.032C252.332 132.353 251.611 132.586 250.877 132.733C250.157 132.88 249.476 132.953 248.835 132.953H237.064V127.748H248.835C249.503 127.695 250.103 127.561 250.637 127.348C251.184 127.121 251.652 126.82 252.039 126.447C252.426 126.073 252.726 125.626 252.939 125.105C253.153 124.572 253.26 123.971 253.26 123.304V120.941C253.193 120.287 253.053 119.687 252.839 119.14C252.626 118.592 252.332 118.125 251.958 117.738C251.598 117.351 251.158 117.051 250.637 116.837C250.117 116.611 249.516 116.497 248.835 116.497H237.104C236.41 116.497 235.883 116.677 235.522 117.038C235.162 117.398 234.982 117.918 234.982 118.599V140H229.777V118.599C229.777 117.264 230.017 116.13 230.498 115.196C230.991 114.262 231.599 113.507 232.319 112.934C233.053 112.36 233.847 111.946 234.702 111.692C235.556 111.425 236.343 111.292 237.064 111.292H248.835C250.01 111.292 251.064 111.445 251.999 111.752C252.933 112.046 253.754 112.446 254.461 112.954C255.182 113.447 255.789 114.021 256.283 114.675C256.79 115.329 257.204 116.017 257.524 116.737C257.858 117.445 258.098 118.165 258.245 118.899C258.391 119.62 258.465 120.301 258.465 120.941V123.304ZM291.097 140H285.892V132.953H267.594V140H262.389V125.646C262.389 123.551 262.749 121.622 263.47 119.86C264.19 118.099 265.191 116.584 266.473 115.316C267.754 114.048 269.269 113.06 271.017 112.353C272.765 111.646 274.674 111.292 276.743 111.292H288.474C288.834 111.292 289.175 111.359 289.495 111.492C289.815 111.626 290.096 111.812 290.336 112.053C290.576 112.293 290.763 112.573 290.896 112.894C291.03 113.214 291.097 113.554 291.097 113.915V140ZM267.594 127.748H285.892V116.497H276.743C276.583 116.497 276.242 116.524 275.722 116.577C275.215 116.617 274.621 116.731 273.94 116.917C273.273 117.104 272.565 117.391 271.818 117.778C271.07 118.165 270.383 118.699 269.756 119.38C269.129 120.061 268.608 120.915 268.194 121.942C267.794 122.957 267.594 124.191 267.594 125.646V127.748ZM325.811 127.988C325.811 129.737 325.504 131.345 324.89 132.813C324.289 134.281 323.455 135.549 322.387 136.617C321.319 137.671 320.052 138.499 318.583 139.099C317.115 139.7 315.521 140 313.799 140H299.745C299.371 140 299.024 139.933 298.704 139.8C298.384 139.666 298.104 139.486 297.863 139.259C297.636 139.019 297.456 138.739 297.323 138.418C297.189 138.098 297.123 137.751 297.123 137.377V113.915C297.123 113.554 297.189 113.214 297.323 112.894C297.456 112.573 297.636 112.293 297.863 112.053C298.104 111.812 298.384 111.626 298.704 111.492C299.024 111.359 299.371 111.292 299.745 111.292H313.799C315.521 111.292 317.115 111.592 318.583 112.193C320.052 112.793 321.319 113.628 322.387 114.695C323.455 115.75 324.289 117.018 324.89 118.499C325.504 119.967 325.811 121.569 325.811 123.304V127.988ZM320.605 123.304C320.605 122.289 320.439 121.362 320.105 120.521C319.785 119.68 319.324 118.966 318.724 118.379C318.123 117.778 317.402 117.318 316.562 116.998C315.734 116.664 314.813 116.497 313.799 116.497H302.328V134.795H313.799C314.813 134.795 315.734 134.635 316.562 134.314C317.402 133.981 318.123 133.52 318.724 132.933C319.324 132.333 319.785 131.618 320.105 130.791C320.439 129.95 320.605 129.016 320.605 127.988V123.304Z" fill="black"/>
<path fill-rule="evenodd" clip-rule="evenodd" d="M16.1768 177.983C39.5574 168.508 111.731 152 199.177 152C286.622 152 358.796 168.465 382.177 177.916C346.07 166.71 266.063 157.616 199.177 157.616V157.631C132.291 157.631 52.2835 166.748 16.1768 177.983Z" fill="#166DFF"/>
</svg>
